<?xml version="1.0" encoding="UTF-8" ?>
<!DOCTYPE svg PUBLIC "-//W3C//DTD SVG 1.1//EN" "http://www.w3.org/Graphics/SVG/1.1/DTD/svg11.dtd">
<svg width="512pt" height="512pt" viewBox="0 0 512 512" version="1.1" xmlns="http://www.w3.org/2000/svg">
<g id="#ffffffff">
<path fill="#ffffff" opacity="1.00" d=" M 242.00 3.07 C 282.30 -5.54 326.58 5.16 357.81 32.29 C 379.48 50.69 395.68 74.87 407.19 100.71 C 417.15 122.26 422.68 145.44 429.00 168.22 C 421.40 168.22 413.81 168.22 406.22 168.21 C 399.99 143.61 392.79 119.01 380.73 96.55 C 369.15 74.31 352.98 53.93 331.73 40.25 C 310.36 26.41 284.19 19.90 258.84 22.59 C 235.62 24.83 213.58 34.37 194.56 47.63 C 171.65 63.31 152.87 84.13 135.73 105.77 C 129.12 114.12 123.25 123.14 115.51 130.54 C 110.03 135.43 104.44 140.51 97.61 143.44 C 92.12 145.72 85.33 142.20 83.63 136.60 C 81.93 131.73 84.32 125.96 88.88 123.61 C 96.16 119.16 102.51 113.33 107.67 106.54 C 122.74 86.55 138.34 66.75 156.89 49.84 C 180.83 27.67 209.69 9.61 242.00 3.07 Z" />
<path fill="#ffffff" opacity="1.00" d=" M 262.05 52.86 C 271.13 49.84 280.50 47.61 290.04 46.80 C 297.36 47.67 302.04 57.22 297.71 63.39 C 295.23 67.41 290.31 68.46 285.97 69.02 C 264.88 72.36 245.94 83.29 229.31 96.25 C 220.18 103.73 211.72 112.00 203.81 120.76 C 193.77 132.34 184.16 144.38 172.75 154.68 C 167.81 159.58 162.25 163.78 156.93 168.24 C 142.88 168.25 128.82 168.26 114.77 168.24 C 126.86 161.42 139.47 155.18 149.91 145.90 C 164.17 134.18 176.22 120.11 187.88 105.89 C 208.28 83.12 232.91 63.09 262.05 52.86 Z" />
<path fill="#ffffff" opacity="1.00" d=" M 295.13 97.39 C 304.43 94.72 314.36 93.37 323.91 95.60 C 337.45 98.85 350.35 105.99 359.15 116.95 C 370.63 131.16 373.22 150.62 370.21 168.22 C 362.79 168.22 355.36 168.22 347.94 168.22 C 350.38 157.28 350.65 145.09 344.97 135.07 C 339.65 125.39 329.39 119.53 318.96 116.89 C 311.58 115.46 304.00 117.25 297.10 119.92 C 283.78 125.67 272.40 135.08 262.37 145.42 C 255.22 153.37 247.44 160.72 239.82 168.20 C 228.97 168.24 218.11 168.21 207.26 168.22 C 220.15 156.79 232.80 145.07 244.60 132.52 C 258.55 117.32 275.27 103.83 295.13 97.39 Z" />
<path fill="#ffffff" opacity="1.00" d=" M 300.00 151.89 C 302.14 149.14 305.32 146.92 308.94 147.01 C 314.87 146.66 320.36 152.13 319.95 158.08 C 319.96 162.03 317.31 165.25 315.02 168.22 C 305.78 168.21 296.54 168.23 287.30 168.22 C 291.53 162.77 295.71 157.29 300.00 151.89 Z" />
<path fill="#ffffff" opacity="1.00" d=" M 55.22 174.44 C 189.07 174.43 322.93 174.44 456.78 174.43 C 456.79 209.56 456.78 244.69 456.78 279.81 C 322.93 279.82 189.07 279.82 55.22 279.81 C 55.22 244.69 55.21 209.56 55.22 174.44 M 72.50 191.72 C 72.50 215.32 72.50 238.92 72.50 262.53 C 194.83 262.53 317.17 262.53 439.50 262.53 C 439.49 238.92 439.50 215.32 439.50 191.72 C 317.17 191.72 194.83 191.72 72.50 191.72 Z" />
<path fill="#ffffff" opacity="1.00" d=" M 144.71 217.35 C 146.82 212.59 148.88 207.81 150.97 203.03 C 154.87 205.25 158.78 207.47 162.69 209.69 C 159.47 213.92 156.25 218.14 153.04 222.37 C 158.08 221.70 163.11 221.01 168.15 220.35 C 168.16 224.81 168.16 229.28 168.15 233.75 C 163.16 233.16 158.16 232.56 153.17 231.98 C 156.38 236.01 159.62 240.03 162.84 244.06 C 158.80 246.37 154.76 248.70 150.71 250.99 C 148.66 246.21 146.65 241.40 144.52 236.65 C 142.33 241.51 140.07 246.34 137.84 251.18 C 134.10 248.84 130.37 246.48 126.63 244.13 C 129.79 240.04 132.98 235.97 136.14 231.88 C 131.24 232.50 126.34 233.15 121.43 233.77 C 121.44 229.31 121.43 224.84 121.44 220.38 C 126.31 220.99 131.18 221.63 136.05 222.24 C 132.90 218.13 129.72 214.04 126.57 209.94 C 130.50 207.67 134.44 205.42 138.37 203.16 C 140.49 207.89 142.59 212.62 144.71 217.35 Z" />
<path fill="#ffffff" opacity="1.00" d=" M 348.97 209.94 C 352.91 207.68 356.84 205.42 360.78 203.16 C 362.89 207.86 364.95 212.58 367.10 217.26 C 369.29 212.57 371.26 207.78 373.34 203.04 C 377.25 205.24 381.14 207.47 385.05 209.67 C 381.88 213.93 378.64 218.13 375.45 222.37 C 380.48 221.70 385.50 221.01 390.53 220.35 C 390.53 224.81 390.53 229.28 390.53 233.75 C 385.54 233.16 380.56 232.55 375.58 231.98 C 378.79 236.01 382.03 240.03 385.24 244.06 C 381.20 246.38 377.15 248.69 373.10 251.00 C 371.04 246.21 369.00 241.42 366.94 236.64 C 364.69 241.49 362.46 246.34 360.22 251.18 C 356.49 248.83 352.76 246.48 349.03 244.13 C 352.19 240.04 355.36 235.97 358.52 231.88 C 353.62 232.50 348.74 233.15 343.85 233.78 C 343.84 229.31 343.84 224.84 343.85 220.38 C 348.70 220.99 353.56 221.63 358.43 222.24 C 355.28 218.13 352.12 214.04 348.97 209.94 Z" />
<path fill="#ffffff" opacity="1.00" d=" M 200.69 209.94 C 204.62 207.67 208.56 205.42 212.49 203.16 C 214.62 207.89 216.71 212.63 218.84 217.36 C 220.94 212.59 223.01 207.81 225.09 203.03 C 229.00 205.25 232.90 207.47 236.81 209.69 C 233.61 213.92 230.39 218.13 227.20 222.37 C 232.23 221.70 237.25 221.02 242.28 220.35 C 242.28 224.81 242.28 229.28 242.28 233.75 C 237.29 233.16 232.31 232.55 227.32 231.98 C 230.53 236.01 233.75 240.03 236.97 244.06 C 232.93 246.38 228.88 248.68 224.84 251.00 C 222.79 246.21 220.76 241.42 218.68 236.64 C 216.44 241.49 214.21 246.34 211.97 251.18 C 208.23 248.83 204.49 246.48 200.76 244.13 C 203.92 240.04 207.10 235.97 210.27 231.88 C 205.37 232.50 200.49 233.15 195.59 233.78 C 195.59 229.31 195.59 224.84 195.59 220.38 C 200.45 220.99 205.31 221.63 210.18 222.24 C 207.03 218.13 203.85 214.05 200.69 209.94 Z" />
<path fill="#ffffff" opacity="1.00" d=" M 274.85 209.94 C 278.77 207.67 282.70 205.43 286.61 203.16 C 288.73 207.82 290.78 212.52 292.90 217.18 C 295.24 212.57 297.08 207.73 299.23 203.03 C 303.13 205.26 307.03 207.47 310.93 209.69 C 307.73 213.92 304.50 218.13 301.29 222.37 C 306.33 221.70 311.37 221.01 316.41 220.35 C 316.41 224.81 316.41 229.28 316.41 233.74 C 311.42 233.16 306.44 232.55 301.45 231.98 C 304.67 236.01 307.90 240.03 311.12 244.06 C 307.07 246.38 303.02 248.69 298.97 251.00 C 296.91 246.21 294.88 241.42 292.81 236.64 C 290.56 241.48 288.34 246.34 286.09 251.18 C 282.35 248.83 278.61 246.49 274.88 244.12 C 278.04 240.04 281.23 235.97 284.39 231.88 C 279.50 232.50 274.61 233.15 269.72 233.78 C 269.71 229.31 269.71 224.84 269.72 220.38 C 274.58 220.99 279.44 221.63 284.30 222.24 C 281.16 218.14 277.99 214.04 274.85 209.94 Z" />
<path fill="#ffffff" opacity="1.00" d=" M 91.44 296.64 C 109.56 296.68 127.67 296.64 145.78 296.66 C 133.96 301.58 122.33 306.97 110.23 311.20 C 105.49 312.96 100.02 315.71 95.11 312.89 C 89.21 310.01 87.53 301.81 91.44 296.64 Z" />
<path fill="#ffffff" opacity="1.00" d=" M 206.46 297.63 C 207.51 296.87 208.67 296.55 209.96 296.64 C 223.20 296.67 236.43 296.64 249.67 296.66 C 229.35 309.46 208.73 321.76 187.97 333.83 C 164.97 346.41 142.16 359.51 117.94 369.64 C 112.50 371.83 105.59 368.86 103.89 363.17 C 102.45 359.25 103.55 354.65 106.53 351.76 C 109.07 349.59 112.21 348.36 115.19 346.95 C 146.74 332.70 176.74 315.33 206.46 297.63 Z" />
<path fill="#ffffff" opacity="1.00" d=" M 406.27 338.76 C 382.19 331.26 360.30 316.56 344.73 296.66 C 354.20 296.65 363.66 296.65 373.12 296.65 C 374.87 296.35 376.03 297.87 377.33 298.74 C 384.30 304.46 392.27 308.74 400.19 312.96 C 404.96 315.25 410.13 316.62 414.85 319.01 C 420.81 322.60 421.28 331.74 416.43 336.46 C 413.89 339.13 409.72 340.03 406.27 338.76 Z" />
<path fill="#ffffff" opacity="1.00" d=" M 281.43 316.62 C 293.07 314.05 304.62 318.86 314.72 324.25 C 341.50 339.29 364.51 360.29 391.87 374.38 C 395.86 376.50 400.32 377.61 404.19 379.97 C 409.01 383.05 410.35 390.23 407.00 394.85 C 404.32 399.10 398.61 400.67 393.99 398.90 C 379.79 393.91 367.08 385.60 354.60 377.34 C 337.27 365.69 320.83 352.63 302.54 342.49 C 296.88 339.76 290.38 336.05 284.00 338.62 C 275.75 341.60 268.48 346.61 260.82 350.77 C 231.34 368.73 203.20 388.80 173.56 406.51 C 162.99 412.18 152.77 418.95 141.02 421.97 C 134.04 423.58 127.11 416.86 128.28 409.84 C 128.84 405.43 132.29 401.94 136.45 400.69 C 146.93 397.26 156.14 391.07 165.72 385.78 C 189.54 371.17 212.62 355.38 236.19 340.37 C 244.34 335.50 252.18 330.09 260.67 325.81 C 267.37 322.29 273.98 318.34 281.43 316.62 Z" />
<path fill="#ffffff" opacity="1.00" d=" M 274.18 385.18 C 282.77 382.97 291.50 386.37 299.29 389.80 C 322.32 401.05 343.23 416.06 365.80 428.15 C 370.66 430.91 377.17 431.90 380.05 437.22 C 383.14 442.80 380.09 450.63 373.95 452.48 C 370.54 453.69 366.86 452.75 363.72 451.24 C 352.85 446.72 342.96 440.26 332.88 434.26 C 321.81 427.61 310.71 420.99 299.57 414.47 C 293.74 411.70 288.20 408.09 281.87 406.55 C 279.12 405.69 276.58 407.50 274.09 408.40 C 263.74 413.60 254.39 420.50 244.60 426.64 C 224.65 440.25 205.21 454.56 185.64 468.71 C 182.48 471.09 178.12 472.07 174.40 470.45 C 169.05 468.45 166.29 461.72 168.46 456.50 C 169.38 453.70 171.82 451.79 174.08 450.08 C 196.04 434.32 217.74 418.19 240.28 403.27 C 251.04 396.36 261.84 388.94 274.18 385.18 Z" />
<path fill="#ffffff" opacity="1.00" d=" M 256.09 459.01 C 262.42 455.38 269.58 452.60 277.00 453.13 C 287.96 453.74 297.80 459.32 306.79 465.18 C 316.07 471.54 325.27 478.04 334.57 484.39 C 337.34 486.33 340.37 488.44 341.47 491.81 C 343.55 497.18 340.41 503.86 334.90 505.61 C 331.02 507.12 326.77 505.72 323.56 503.38 C 315.32 497.64 307.04 491.95 298.82 486.17 C 292.30 481.85 285.69 477.27 278.04 475.22 C 273.55 474.07 269.22 476.30 265.52 478.61 C 254.05 486.20 243.57 495.18 233.85 504.89 C 230.63 508.12 227.11 511.68 222.26 512.00 L 221.96 512.00 C 215.93 511.79 210.59 506.29 211.30 500.16 C 211.82 494.27 217.20 490.86 220.89 486.90 C 231.89 476.75 242.99 466.43 256.09 459.01 Z" />
</g>
</svg>
