<?xml version="1.0" encoding="iso-8859-1"?>
<!-- Generator: Adobe Illustrator 19.0.0, SVG Export Plug-In . SVG Version: 6.00 Build 0)  -->
<svg version="1.1" id="Layer_1" xmlns="http://www.w3.org/2000/svg" xmlns:xlink="http://www.w3.org/1999/xlink" x="0px" y="0px"
	 viewBox="0 0 512 512" style="enable-background:new 0 0 512 512;" xml:space="preserve">
<circle style="fill:#8FDEF6;" cx="256" cy="256" r="256"/>
<path style="fill:#70C9E9;" d="M512,256c0-0.846-0.056-1.678-0.066-2.524L385.222,126.778c-1.916-1.949-4.463-2.907-7.003-2.907
	H133.781c-2.543,0-5.087,0.958-7.003,2.907c-1.949,1.916-2.907,4.463-2.907,7.003v244.439c0,2.543,0.958,5.087,2.907,7.003
	l126.699,126.712c0.846,0.01,1.678,0.066,2.524,0.066C397.388,512,512,397.381,512,256z"/>
<path style="fill:#FFFFFF;" d="M133.781,388.129c-2.537,0-5.07-0.968-7.006-2.904c-1.936-1.932-2.904-4.473-2.904-7.006V133.781
	c0-2.537,0.968-5.074,2.904-7.006c1.936-1.936,4.473-2.904,7.006-2.904h244.439c2.537,0,5.07,0.968,7.006,2.904
	c1.936,1.932,2.904,4.473,2.904,7.006v244.439c0,2.537-0.968,5.074-2.904,7.006c-1.936,1.936-4.473,2.904-7.006,2.904H133.781z"/>
<g>
	<rect x="160.322" y="233.208" style="fill:#343B43;" width="9.117" height="9.11"/>
	<rect x="160.322" y="251.442" style="fill:#343B43;" width="9.117" height="18.227"/>
	<rect x="169.456" y="242.325" style="fill:#343B43;" width="9.107" height="9.117"/>
	<rect x="169.456" y="260.555" style="fill:#343B43;" width="9.107" height="9.117"/>
	<rect x="178.539" y="242.325" style="fill:#343B43;" width="9.114" height="9.117"/>
	<rect x="178.539" y="269.675" style="fill:#343B43;" width="9.114" height="9.11"/>
	<rect x="187.66" y="233.208" style="fill:#343B43;" width="9.114" height="18.227"/>
	<rect x="187.66" y="260.555" style="fill:#343B43;" width="9.114" height="9.117"/>
	<rect x="196.773" y="233.208" style="fill:#343B43;" width="9.114" height="27.334"/>
	<rect x="205.89" y="233.208" style="fill:#343B43;" width="9.114" height="27.334"/>
	<rect x="205.89" y="269.675" style="fill:#343B43;" width="9.114" height="9.11"/>
	<rect x="215.007" y="233.208" style="fill:#343B43;" width="9.114" height="9.11"/>
	<rect x="215.007" y="251.442" style="fill:#343B43;" width="9.114" height="9.11"/>
	<rect x="215.007" y="269.675" style="fill:#343B43;" width="9.114" height="9.11"/>
	<rect x="224.111" y="233.208" style="fill:#343B43;" width="9.11" height="36.468"/>
	<rect x="233.208" y="160.322" style="fill:#343B43;" width="9.114" height="27.334"/>
	<rect x="233.208" y="196.773" style="fill:#343B43;" width="9.114" height="9.117"/>
	<rect x="233.208" y="215.007" style="fill:#343B43;" width="9.114" height="9.114"/>
	<rect x="233.208" y="233.208" style="fill:#343B43;" width="9.114" height="9.11"/>
	<rect x="233.208" y="260.555" style="fill:#343B43;" width="9.114" height="9.117"/>
	<rect x="233.208" y="278.792" style="fill:#343B43;" width="9.114" height="45.558"/>
	<rect x="233.208" y="342.578" style="fill:#343B43;" width="9.114" height="9.114"/>
	<rect x="242.325" y="169.422" style="fill:#343B43;" width="9.11" height="18.224"/>
	<rect x="242.325" y="196.773" style="fill:#343B43;" width="9.11" height="9.117"/>
	<rect x="242.325" y="224.107" style="fill:#343B43;" width="9.11" height="9.114"/>
	<rect x="242.325" y="242.325" style="fill:#343B43;" width="9.11" height="18.227"/>
	<rect x="242.325" y="278.792" style="fill:#343B43;" width="9.11" height="18.227"/>
	<rect x="251.442" y="160.322" style="fill:#343B43;" width="9.11" height="9.114"/>
	<rect x="251.442" y="196.773" style="fill:#343B43;" width="9.11" height="9.117"/>
	<rect x="251.442" y="215.007" style="fill:#343B43;" width="9.11" height="27.334"/>
	<rect x="251.442" y="287.909" style="fill:#343B43;" width="9.11" height="9.114"/>
	<rect x="251.442" y="306.11" style="fill:#343B43;" width="9.11" height="18.224"/>
	<rect x="251.442" y="333.461" style="fill:#343B43;" width="9.11" height="18.227"/>
	<rect x="260.552" y="169.422" style="fill:#343B43;" width="9.114" height="27.331"/>
	<rect x="260.552" y="205.89" style="fill:#343B43;" width="9.114" height="9.11"/>
	<rect x="260.552" y="224.107" style="fill:#343B43;" width="9.114" height="9.114"/>
	<rect x="260.552" y="260.555" style="fill:#343B43;" width="9.114" height="9.117"/>
	<rect x="260.552" y="278.792" style="fill:#343B43;" width="9.114" height="9.114"/>
	<rect x="260.552" y="296.993" style="fill:#343B43;" width="9.114" height="27.331"/>
	<rect x="260.552" y="342.578" style="fill:#343B43;" width="9.114" height="9.114"/>
	<rect x="269.675" y="160.322" style="fill:#343B43;" width="9.114" height="18.227"/>
	<rect x="269.675" y="196.773" style="fill:#343B43;" width="9.114" height="54.678"/>
	<rect x="269.675" y="278.792" style="fill:#343B43;" width="9.114" height="45.558"/>
	<rect x="278.792" y="233.208" style="fill:#343B43;" width="9.117" height="9.11"/>
	<rect x="278.792" y="251.442" style="fill:#343B43;" width="9.117" height="9.11"/>
	<rect x="278.792" y="287.909" style="fill:#343B43;" width="9.117" height="18.224"/>
	<rect x="278.792" y="333.461" style="fill:#343B43;" width="9.117" height="9.114"/>
	<rect x="287.909" y="242.325" style="fill:#343B43;" width="9.107" height="18.227"/>
	<rect x="287.909" y="269.675" style="fill:#343B43;" width="9.107" height="9.11"/>
	<rect x="287.909" y="287.909" style="fill:#343B43;" width="9.107" height="9.114"/>
	<rect x="287.909" y="306.11" style="fill:#343B43;" width="9.107" height="9.117"/>
	<rect x="287.909" y="324.344" style="fill:#343B43;" width="9.107" height="18.227"/>
	<rect x="296.993" y="278.792" style="fill:#343B43;" width="9.114" height="36.468"/>
	<rect x="306.11" y="233.208" style="fill:#343B43;" width="9.117" height="27.334"/>
	<rect x="306.11" y="287.909" style="fill:#343B43;" width="9.117" height="18.224"/>
	<rect x="306.11" y="315.227" style="fill:#343B43;" width="9.117" height="9.107"/>
	<rect x="306.11" y="333.461" style="fill:#343B43;" width="9.117" height="9.114"/>
	<rect x="315.227" y="251.442" style="fill:#343B43;" width="9.11" height="9.11"/>
	<rect x="315.227" y="269.675" style="fill:#343B43;" width="9.11" height="45.561"/>
	<rect x="324.344" y="233.208" style="fill:#343B43;" width="9.114" height="18.227"/>
	<rect x="324.344" y="260.555" style="fill:#343B43;" width="9.114" height="9.117"/>
	<rect x="324.344" y="278.792" style="fill:#343B43;" width="9.114" height="27.334"/>
	<rect x="324.344" y="315.227" style="fill:#343B43;" width="9.114" height="36.435"/>
	<rect x="333.461" y="233.208" style="fill:#343B43;" width="9.11" height="27.334"/>
	<rect x="333.461" y="278.792" style="fill:#343B43;" width="9.11" height="9.114"/>
	<rect x="333.461" y="306.11" style="fill:#343B43;" width="9.11" height="9.117"/>
	<rect x="333.461" y="324.344" style="fill:#343B43;" width="9.11" height="18.227"/>
</g>
<g>
	<rect x="306.11" y="178.539" style="fill:#EA6552;" width="27.337" height="27.334"/>
	<path style="fill:#EA6552;" d="M287.893,160.322v63.785h63.782v-63.785H287.893L287.893,160.322z M342.561,214.994H297v-45.558
		h45.561V214.994z"/>
</g>
<g>
	<rect x="342.545" y="233.208" style="fill:#343B43;" width="9.114" height="9.11"/>
	<rect x="342.545" y="251.442" style="fill:#343B43;" width="9.114" height="27.334"/>
	<rect x="342.545" y="296.993" style="fill:#343B43;" width="9.114" height="18.227"/>
	<rect x="342.545" y="324.344" style="fill:#343B43;" width="9.114" height="18.227"/>
</g>
<g>
	<rect x="178.539" y="178.539" style="fill:#EA6552;" width="27.337" height="27.334"/>
	<path style="fill:#EA6552;" d="M160.322,160.322v63.785h63.789v-63.785H160.322L160.322,160.322z M214.997,214.994h-45.558v-45.558
		h45.558V214.994z"/>
	<rect x="178.539" y="306.11" style="fill:#EA6552;" width="27.337" height="27.334"/>
	<path style="fill:#EA6552;" d="M160.322,287.893v63.785h63.789v-63.785H160.322z M214.997,342.564h-45.558v-45.558h45.558V342.564z
		"/>
</g>
<g>
	<polygon style="fill:#343B43;" points="342.561,151.208 360.792,151.208 360.792,169.436 369.899,169.436 369.899,142.098 
		342.561,142.098 	"/>
	<polygon style="fill:#343B43;" points="151.212,169.436 151.212,151.208 169.439,151.208 169.439,142.098 142.098,142.098 
		142.098,169.436 	"/>
	<polygon style="fill:#343B43;" points="342.561,360.792 360.792,360.792 360.792,342.564 369.899,342.564 369.899,369.902 
		342.561,369.902 	"/>
	<polygon style="fill:#343B43;" points="151.212,342.564 151.212,360.792 169.439,360.792 169.439,369.902 142.098,369.902 
		142.098,342.564 	"/>
</g>
<g>
</g>
<g>
</g>
<g>
</g>
<g>
</g>
<g>
</g>
<g>
</g>
<g>
</g>
<g>
</g>
<g>
</g>
<g>
</g>
<g>
</g>
<g>
</g>
<g>
</g>
<g>
</g>
<g>
</g>
</svg>
