<?xml version="1.0" encoding="iso-8859-1"?>
<!-- Generator: Adobe Illustrator 19.0.0, SVG Export Plug-In . SVG Version: 6.00 Build 0)  -->
<svg version="1.1" id="Layer_1" xmlns="http://www.w3.org/2000/svg" xmlns:xlink="http://www.w3.org/1999/xlink" x="0px" y="0px"
	 viewBox="0 0 512 512" style="enable-background:new 0 0 512 512;" xml:space="preserve">
<rect x="360.089" y="314.568" style="fill:#F4B2B0;" width="137.922" height="118.127"/>
<path style="fill:#B3404A;" d="M429.051,393.714c-7.725,0-13.989-6.264-13.989-13.989v-18.111c0-7.725,6.264-13.989,13.989-13.989
	s13.989,6.264,13.989,13.989v18.111C443.04,387.45,436.777,393.714,429.051,393.714z"/>
<g>
	<rect x="13.989" y="134.859" style="fill:#F4B2B0;" width="415.067" height="51.081"/>
	<circle style="fill:#F4B2B0;" cx="178.366" cy="293.541" r="37.841"/>
</g>
<g>
	<path style="fill:#B3404A;" d="M429.051,120.865H27.979V93.308h401.072c7.725,0,13.989-6.264,13.989-13.989
		s-6.264-13.989-13.989-13.989H13.989C6.264,65.329,0,71.593,0,79.318V376.32c0,7.725,6.264,13.989,13.989,13.989h289.165
		c7.725,0,13.989-6.264,13.989-13.989s-6.264-13.989-13.989-13.989H27.979V199.925h401.072c7.725,0,13.989-6.264,13.989-13.989
		v-51.081C443.04,127.13,436.777,120.865,429.051,120.865z M415.061,171.946H27.979v-23.102h387.083V171.946z"/>
	<path style="fill:#B3404A;" d="M105.034,269.685c7.725,0,13.989-6.264,13.989-13.989c0-7.725-6.264-13.989-13.989-13.989
		c-28.579,0-51.83,23.25-51.83,51.831c0,28.579,23.25,51.83,51.83,51.83c14.066,0,27.149-5.659,36.685-15.221
		c9.387,9.398,22.354,15.221,36.654,15.221c28.579,0,51.83-23.25,51.83-51.83c0-28.58-23.25-51.831-51.83-51.831
		c-28.58,0-51.831,23.25-51.831,51.831c0,2.971,0.264,5.878,0.747,8.714c-0.09,0.189-0.19,0.371-0.273,0.565
		c-3.745,8.851-12.374,14.571-21.983,14.571c-13.15,0-23.851-10.699-23.851-23.851C81.184,280.386,91.884,269.685,105.034,269.685z
		 M178.374,269.685c13.15,0,23.851,10.699,23.851,23.852c0,13.15-10.699,23.851-23.851,23.851s-23.852-10.699-23.852-23.851
		C154.522,280.386,165.221,269.685,178.374,269.685z"/>
	<path style="fill:#B3404A;" d="M498.011,300.574h-17.436v-50.362c0-7.725-6.264-13.989-13.989-13.989h-75.069
		c-7.725,0-13.989,6.264-13.989,13.989v8.444H269.813c-7.725,0-13.989,6.264-13.989,13.989c0,7.725,6.264,13.989,13.989,13.989
		h107.713v13.939l-107.587-0.01c-7.725,0-13.989,6.264-13.989,13.989s6.264,13.989,13.989,13.989H346.1v104.139
		c0,7.725,6.264,13.989,13.989,13.989h137.921c7.725,0,13.989-6.264,13.989-13.989v-118.12
		C512,306.838,505.737,300.574,498.011,300.574z M405.505,264.201h47.09v36.373h-47.09V264.201z M484.021,418.694H374.079v-90.141
		h109.942V418.694z"/>
</g>
<g>
</g>
<g>
</g>
<g>
</g>
<g>
</g>
<g>
</g>
<g>
</g>
<g>
</g>
<g>
</g>
<g>
</g>
<g>
</g>
<g>
</g>
<g>
</g>
<g>
</g>
<g>
</g>
<g>
</g>
</svg>
